<svg xmlns="http://www.w3.org/2000/svg" viewBox="0 0 1919.677 1850.181"><defs><style>.a{opacity:0.071;}.b{fill:#ffa6a9;}.c{fill:#d9ae38;}.d{fill:#003242;}</style></defs><g class="a" transform="translate(-10.221 -8.283)"><path class="b" d="M185.846,160.613l20.39-27.761a6.638,6.638,0,0,0,.422-6.613,7.284,7.284,0,0,0-5.611-3.936l-35.518-2.915a7.464,7.464,0,0,0-6.475,2.848,6.65,6.65,0,0,0-.833,6.73l15.055,30.676a7.315,7.315,0,0,0,5.992,3.907A7.459,7.459,0,0,0,185.846,160.613Z" transform="translate(930.089 659.874)"/><path class="b" d="M242.665,150.918l-29.817-18.6a7.648,7.648,0,0,0-6.969-.223,6.96,6.96,0,0,0-3.994,5.428l-2.046,33.869a6.856,6.856,0,0,0,3.295,5.824,7.642,7.642,0,0,0,6.937.561l31.863-15.269A6.91,6.91,0,0,0,245.6,156.9,6.81,6.81,0,0,0,242.665,150.918Z" transform="translate(1196.142 731.13)"/><path class="b" d="M132.742,108.032l29.232,19.155a7.647,7.647,0,0,0,6.966.311,6.973,6.973,0,0,0,4.069-5.378l2.7-33.8a6.816,6.816,0,0,0-3.032-6.1,7.634,7.634,0,0,0-7.053-.774L133.473,96.164a6.927,6.927,0,0,0-3.895,5.738A6.827,6.827,0,0,0,132.742,108.032Z" transform="translate(752.841 431.51)"/><path class="b" d="M315.052,298.021,298.828,267.83a7.363,7.363,0,0,0-5.959-3.5,7.455,7.455,0,0,0-6.318,2.871l-19.44,28.455a6.636,6.636,0,0,0-.191,6.67,7.323,7.323,0,0,0,5.818,3.74l35.664,1.735a7.41,7.41,0,0,0,6.125-3.177,6.64,6.64,0,0,0,.525-6.609Z" transform="translate(1614.203 1520.97)"/><path class="b" d="M305.2,111.459,309.659,77.8a6.81,6.81,0,0,0-2.924-5.98,7.628,7.628,0,0,0-6.869-.96L266.98,83.975a6.975,6.975,0,0,0-4.1,5.4,6.767,6.767,0,0,0,2.567,6.193l28.429,20.821a7.64,7.64,0,0,0,7.116.547A6.981,6.981,0,0,0,305.2,111.459Z" transform="translate(1593.433 369.23)"/><path class="b" d="M241.274,132.7l-.658-34.216a6.924,6.924,0,0,0-3.741-5.539,7.65,7.65,0,0,0-6.929-.083l-30.621,17.49a6.755,6.755,0,0,0,0,11.66L230.6,138.393a7.649,7.649,0,0,0,6.957-.1A6.917,6.917,0,0,0,241.274,132.7Z" transform="translate(1171.809 497.759)"/><path class="b" d="M252.654,260.721l-22.582,26.3a6.653,6.653,0,0,0-.934,6.583,7.213,7.213,0,0,0,5.319,4.313l35.225,5.413a7.5,7.5,0,0,0,6.453-2.514,6.668,6.668,0,0,0,1.294-6.509L264.713,262.6a7.264,7.264,0,0,0-5.5-4.028A7.539,7.539,0,0,0,252.654,260.721Z" transform="translate(1377.919 1486.229)"/><path class="b" d="M189.006,61.651,215.169,38.54a6.706,6.706,0,0,0,1.887-6.412,7.076,7.076,0,0,0-4.664-4.97l-34.129-9.925a7.584,7.584,0,0,0-6.792,1.657,6.731,6.731,0,0,0-2.2,6.325l8.039,33.036a7.126,7.126,0,0,0,4.879,4.7,7.609,7.609,0,0,0,6.814-1.3Z" transform="translate(1002.568 51.895)"/><path class="b" d="M264.693,197.854,231.66,184.876a7.626,7.626,0,0,0-6.815,1,6.809,6.809,0,0,0-2.9,5.94l4.677,33.591a7.029,7.029,0,0,0,4.395,5.14,7.637,7.637,0,0,0,6.933-.7L266.3,209.028a6.74,6.74,0,0,0,2.216-5.979A6.959,6.959,0,0,0,264.693,197.854Z" transform="translate(1335.478 1046.686)"/><path class="b" d="M70.1,202.665l3.873,33.73a7.005,7.005,0,0,0,4.246,5.233,7.644,7.644,0,0,0,6.935-.514l28.794-19.988a6.782,6.782,0,0,0,2.7-6.116,6.951,6.951,0,0,0-3.939-5.474L80.038,195.655a7.63,7.63,0,0,0-7.011.895A6.8,6.8,0,0,0,70.1,202.665Z" transform="translate(377.581 1110.238)"/><path class="b" d="M168.285,191.155l-18.636-28.941a7.522,7.522,0,0,0-12.278.347l-17.028,29.913a6.637,6.637,0,0,0,.373,6.624,7.392,7.392,0,0,0,6.058,3.3l35.664-.9a7.343,7.343,0,0,0,5.925-3.64A6.636,6.636,0,0,0,168.285,191.155Z" transform="translate(690.185 896.535)"/><path class="b" d="M255.356,51.438l16.736-29.913a6.638,6.638,0,0,0-.439-6.6,7.4,7.4,0,0,0-6.065-3.253L229.85,12.85a7.329,7.329,0,0,0-5.772,3.673,6.635,6.635,0,0,0,.072,6.6l19.293,28.733a7.535,7.535,0,0,0,11.912-.416Z" transform="translate(1343.719 20.119)"/><path class="b" d="M64.337,62.487l-22.728-26.1a7.539,7.539,0,0,0-6.562-2.154,7.263,7.263,0,0,0-5.5,4.027L17.273,70.052a6.663,6.663,0,0,0,1.216,6.271A7.468,7.468,0,0,0,24.581,79l35.152-5.552a7.237,7.237,0,0,0,5.52-4.264A6.653,6.653,0,0,0,64.337,62.487Z" transform="translate(42.492 153.637)"/><path class="b" d="M168.632,81.617l21.924,26.79a7.521,7.521,0,0,0,6.521,2.324,7.286,7.286,0,0,0,5.61-3.921l13.3-31.37a6.657,6.657,0,0,0-1.053-6.472,7.466,7.466,0,0,0-6.255-2.758l-35.371,4.65a7.238,7.238,0,0,0-5.412,4.173A6.645,6.645,0,0,0,168.632,81.617Z" transform="translate(991.151 344.035)"/><path class="b" d="M80.723,32.022l9.5,32.689a7.171,7.171,0,0,0,5.09,4.5,7.59,7.59,0,0,0,6.749-1.582L127.13,43.473A6.685,6.685,0,0,0,128.714,37a7.118,7.118,0,0,0-4.872-4.77L89.274,23.693a7.558,7.558,0,0,0-6.653,1.963,6.708,6.708,0,0,0-1.9,6.365Z" transform="translate(443.619 90.755)"/><path class="c" d="M154.683,119.41H119.02a7.373,7.373,0,0,0-5.994,3.424,6.636,6.636,0,0,0-.218,6.639L130.493,158.9a7.523,7.523,0,0,0,12.278,0l17.978-29.219a6.636,6.636,0,0,0-.033-6.734A7.362,7.362,0,0,0,154.683,119.41Z" transform="translate(642.179 660.129)"/><path class="c" d="M188.4,162.96l-24.263,24.846a6.672,6.672,0,0,0-1.37,6.471,7.141,7.141,0,0,0,4.951,4.633l34.787,7.565a7.542,7.542,0,0,0,6.605-2.121,6.7,6.7,0,0,0,1.726-6.416l-10.524-32.411a7.2,7.2,0,0,0-5.227-4.335,7.575,7.575,0,0,0-6.685,1.767Z" transform="translate(960.273 907.309)"/><path class="c" d="M53.334,255.86l-35.591-2.568a7.436,7.436,0,0,0-6.248,3.021,6.645,6.645,0,0,0-.695,6.626l15.42,30.538a7.345,7.345,0,0,0,5.9,3.606A7.468,7.468,0,0,0,38.5,294.31l20.1-27.761a6.642,6.642,0,0,0,.5-6.735A7.294,7.294,0,0,0,53.334,255.86Z" transform="translate(0 1455.417)"/><path class="c" d="M113.725,277.707l25.725,23.6a7.6,7.6,0,0,0,6.793,1.428,7.145,7.145,0,0,0,4.973-4.62l8.624-32.9a6.721,6.721,0,0,0-2.067-6.318,7.571,7.571,0,0,0-6.7-1.8l-34.348,9.369a7.09,7.09,0,0,0-4.69,4.854,6.693,6.693,0,0,0,1.694,6.389Z" transform="translate(640.823 1477.017)"/><path class="c" d="M109.462,210.409,108,244.278a6.868,6.868,0,0,0,3.4,5.81,7.645,7.645,0,0,0,6.982.436l31.644-15.685a6.9,6.9,0,0,0,3.6-5.7,6.828,6.828,0,0,0-3.092-5.962L120.351,205a7.649,7.649,0,0,0-7-.114A6.941,6.941,0,0,0,109.462,210.409Z" transform="translate(616.804 1163.152)"/><path class="c" d="M103.1,119.855,73.864,100.839a7.647,7.647,0,0,0-6.966-.311,6.973,6.973,0,0,0-4.07,5.378l-2.558,33.8a6.844,6.844,0,0,0,3.213,5.883,7.64,7.64,0,0,0,6.945.641l32.156-14.783a6.893,6.893,0,0,0,3.548-5.664A6.823,6.823,0,0,0,103.1,119.855Z" transform="translate(315.716 543.85)"/><path class="c" d="M233.235,207.79l-35.3-5a7.494,7.494,0,0,0-6.483,2.582,6.664,6.664,0,0,0-1.191,6.579l13.082,31.509a7.272,7.272,0,0,0,5.569,4,7.528,7.528,0,0,0,6.563-2.265L237.4,218.686a6.655,6.655,0,0,0,1.008-6.514A7.192,7.192,0,0,0,233.235,207.79Z" transform="translate(1133.222 1155.222)"/><path class="c" d="M39.056,271.093l-2.266,33.8a6.85,6.85,0,0,0,3.264,5.875,7.642,7.642,0,0,0,6.968.58l32.01-15.061a6.909,6.909,0,0,0,3.663-5.608,6.811,6.811,0,0,0-2.932-5.983L50.018,265.888a7.649,7.649,0,0,0-6.969-.222A6.96,6.96,0,0,0,39.056,271.093Z" transform="translate(167.602 1524.578)"/><path class="c" d="M31.264,162.97l35.517,2.984a7.464,7.464,0,0,0,6.429-2.83,6.651,6.651,0,0,0,.879-6.678L59.034,125.7a7.332,7.332,0,0,0-5.8-3.665,7.486,7.486,0,0,0-6.4,2.624L26.294,152.421a6.638,6.638,0,0,0-.491,6.539,7.262,7.262,0,0,0,5.461,4.01Z" transform="translate(94.275 675.562)"/><path class="c" d="M162.1,75.359l18.2-29.08a6.635,6.635,0,0,0-.061-6.656,7.355,7.355,0,0,0-5.932-3.546l-35.664-.416a7.379,7.379,0,0,0-6,3.377,6.636,6.636,0,0,0-.286,6.617L149.822,75.22a7.523,7.523,0,0,0,12.278.139Z" transform="translate(765.724 162.627)"/><path class="c" d="M197.215,304.388l35.152-6.177a7.188,7.188,0,0,0,5.177-4.429,6.658,6.658,0,0,0-1.085-6.537l-23.24-25.818a7.552,7.552,0,0,0-6.645-2.038,7.236,7.236,0,0,0-5.413,4.19L189.249,295.5a6.676,6.676,0,0,0,1.433,6.5,7.516,7.516,0,0,0,6.533,2.38Z" transform="translate(1127.367 1490.937)"/><path class="c" d="M32.671,211.457,59.2,188.832a6.72,6.72,0,0,0,2.058-6.371,7.052,7.052,0,0,0-4.542-5.08L22.732,166.9a7.593,7.593,0,0,0-6.829,1.546,6.741,6.741,0,0,0-2.307,6.3l7.308,33.105a7.1,7.1,0,0,0,4.835,4.887,7.61,7.61,0,0,0,6.931-1.278Z" transform="translate(20.663 940.777)"/><path class="c" d="M107.83,192.393l19.513-28.386a6.636,6.636,0,0,0,.213-6.644,7.317,7.317,0,0,0-5.767-3.767L86.125,152A7.411,7.411,0,0,0,80,155.177a6.64,6.64,0,0,0-.525,6.609l16.151,30.19a7.524,7.524,0,0,0,12.2.416Z" transform="translate(432.809 853.724)"/><path class="c" d="M275.245,236.822l33.4-11.937a7.009,7.009,0,0,0,4.3-5.249,6.743,6.743,0,0,0-2.323-6.272l-27.625-21.515a7.63,7.63,0,0,0-6.907-.91,7.061,7.061,0,0,0-4.566,5L265.744,229.4a6.772,6.772,0,0,0,2.612,6.18A7.613,7.613,0,0,0,275.245,236.822Z" transform="translate(1611.55 1082.396)"/><path class="c" d="M204.64,73.546l33.617,11.313a7.606,7.606,0,0,0,6.849-1.36,6.761,6.761,0,0,0,2.505-6.2l-6.5-33.314a7.081,7.081,0,0,0-4.664-4.917,7.625,7.625,0,0,0-6.883,1.03L202.375,61.816A6.744,6.744,0,0,0,200,68.292,7.047,7.047,0,0,0,204.64,73.546Z" transform="translate(1196.384 180.473)"/><path class="d" d="M43.939,22.553,41.82,56.422a6.856,6.856,0,0,0,3.295,5.824,7.642,7.642,0,0,0,6.937.561l31.863-15.2A6.91,6.91,0,0,0,87.578,42a6.81,6.81,0,0,0-2.932-5.983L54.9,17.348a7.648,7.648,0,0,0-6.969-.223A6.96,6.96,0,0,0,43.939,22.553Z" transform="translate(199.333 48.171)"/><path class="d" d="M59.5,118.933,61.908,85a6.85,6.85,0,0,0-3.244-5.832,7.641,7.641,0,0,0-6.914-.622L19.667,93.393a6.92,6.92,0,0,0-3.758,5.621,6.81,6.81,0,0,0,2.954,6.039l29.6,18.878a7.647,7.647,0,0,0,6.939.333A6.98,6.98,0,0,0,59.5,118.933Z" transform="translate(35.786 414.086)"/><path class="d" d="M158.506,49.556l7.308-33.244a6.759,6.759,0,0,0-2.539-6.42,7.614,7.614,0,0,0-7.108-1.214l-33.837,10.9a7.038,7.038,0,0,0-4.455,5.121,6.725,6.725,0,0,0,2.116,6.331L146.813,53.3a7.616,7.616,0,0,0,6.931,1.179,7.091,7.091,0,0,0,4.762-4.926Z" transform="translate(678.258 0)"/><path class="d" d="M255.581,165.521l18.2,29.149a7.526,7.526,0,0,0,12.2,0L303.6,165.1a6.636,6.636,0,0,0-.286-6.617,7.38,7.38,0,0,0-6-3.377l-35.664.347a7.36,7.36,0,0,0-5.889,3.479A6.635,6.635,0,0,0,255.581,165.521Z" transform="translate(1542.786 872.199)"/><path class="d" d="M261.585,248.208l25.652,23.458a7.6,7.6,0,0,0,6.839,1.479,7.142,7.142,0,0,0,5-4.671l8.551-32.9a6.726,6.726,0,0,0-2.123-6.3,7.577,7.577,0,0,0-6.72-1.748L264.508,236.9a7.087,7.087,0,0,0-4.7,4.9A6.7,6.7,0,0,0,261.585,248.208Z" transform="translate(1573.104 1301.29)"/><path class="d" d="M80.262,168.01,48.618,183.695a6.893,6.893,0,0,0-3.548,5.664,6.824,6.824,0,0,0,3.036,5.926L78.216,213.4a7.65,7.65,0,0,0,6.972.135,6.948,6.948,0,0,0,3.917-5.479l1.535-33.869a6.874,6.874,0,0,0-3.426-5.76A7.646,7.646,0,0,0,80.262,168.01Z" transform="translate(219.794 945.012)"/><path class="d" d="M69.021,236.717l-8.039,33.036a6.747,6.747,0,0,0,2.379,6.322,7.6,7.6,0,0,0,6.9,1.451l34.129-9.925a7.076,7.076,0,0,0,4.664-4.97,6.706,6.706,0,0,0-1.887-6.412L81.006,233.109a7.6,7.6,0,0,0-7.075-1.438A7.094,7.094,0,0,0,69.021,236.717Z" transform="translate(319.609 1325.065)"/><path class="d" d="M251.84,132.449l23.313,25.61A7.551,7.551,0,0,0,281.8,160.1a7.237,7.237,0,0,0,5.413-4.19L298.9,123.843a6.679,6.679,0,0,0-1.492-6.486,7.521,7.521,0,0,0-6.547-2.328l-35.006,6.385a7.182,7.182,0,0,0-5.182,4.475,6.662,6.662,0,0,0,1.162,6.56Z" transform="translate(1514.298 633.696)"/><path class="d" d="M123.672,307.191l-5.408-33.522a7.05,7.05,0,0,0-4.493-5.049,7.634,7.634,0,0,0-6.907.815L79.019,290.673a6.75,6.75,0,0,0-2.385,6.232,7,7,0,0,0,4.212,5.289l33.325,12.284a7.615,7.615,0,0,0,6.819-1.211,6.781,6.781,0,0,0,2.681-6.076Z" transform="translate(418.43 1543.656)"/><path class="d" d="M52.015,251.557,68.6,221.506a6.639,6.639,0,0,0-.505-6.58,7.4,7.4,0,0,0-6.072-3.206l-35.664,1.388a7.33,7.33,0,0,0-5.821,3.694,6.635,6.635,0,0,0,.12,6.647l19.147,28.594a7.524,7.524,0,0,0,12.2-.486Z" transform="translate(59.857 1208.48)"/><path class="d" d="M124.768,66.388,89.1,65a7.4,7.4,0,0,0-6.027,3.186,6.64,6.64,0,0,0-.55,6.53L98.97,104.768a7.368,7.368,0,0,0,5.979,3.459,7.451,7.451,0,0,0,6.3-2.9L130.4,76.729a6.635,6.635,0,0,0,.142-6.621A7.322,7.322,0,0,0,124.768,66.388Z" transform="translate(452.266 336.916)"/><path class="d" d="M169.013,294.587l28.209-20.821a6.756,6.756,0,0,0,2.448-6.193,6.983,6.983,0,0,0-4.128-5.328l-33.106-12.84a7.625,7.625,0,0,0-6.762,1.04,6.809,6.809,0,0,0-2.885,5.9l4.9,33.591A7.009,7.009,0,0,0,162,295.218,7.639,7.639,0,0,0,169.013,294.587Z" transform="translate(899.273 1430.155)"/><path class="d" d="M155.521,211.163l-7.747,33.105a6.741,6.741,0,0,0,2.288,6.259,7.59,7.59,0,0,0,6.774,1.584l34.056-10.133a7.062,7.062,0,0,0,4.575-5.012,6.711,6.711,0,0,0-1.944-6.371l-26.309-22.9a7.61,7.61,0,0,0-6.837-1.276A7.119,7.119,0,0,0,155.521,211.163Z" transform="translate(867.089 1175.099)"/><path class="d" d="M267.46,86.6,237.351,68.419a7.649,7.649,0,0,0-6.972-.135,6.947,6.947,0,0,0-3.917,5.479L225,107.631a6.867,6.867,0,0,0,3.4,5.81,7.645,7.645,0,0,0,6.982.436l31.644-15.685a6.753,6.753,0,0,0,.438-11.59Z" transform="translate(1354.854 351.82)"/><path class="d" d="M308.56,61.693,296.5,29.837a7.244,7.244,0,0,0-5.434-4.149,7.547,7.547,0,0,0-6.624,2.067L261.349,53.573a6.657,6.657,0,0,0-1.06,6.56,7.194,7.194,0,0,0,5.226,4.406l35.079,6.038a7.516,7.516,0,0,0,6.533-2.379,6.676,6.676,0,0,0,1.432-6.5Z" transform="translate(1574.728 102.726)"/></g></svg>