<svg xmlns="http://www.w3.org/2000/svg" id="Group_68" data-name="Group 68" viewBox="0 0 64.62 64.62">
    <defs>
        <style>
            .cls-1,.cls-2{fill:#fff}.cls-2{fill-rule:evenodd}
        </style>
    </defs>
    <path id="Path_283" d="M32.31 0a32.308 32.308 0 0 1 22.845 55.155 32.308 32.308 0 1 1-45.69-45.69A32.106 32.106 0 0 1 32.31 0zm21.083 11.227A29.705 29.705 0 1 0 62.2 32.31a29.915 29.915 0 0 0-8.812-21.083z" class="cls-1" data-name="Path 283"/>
    <path id="Path_284" d="M43.779 41.454c-2.35.065-4.765.065-7.115.065-.653 0-1.371-.065-2.023 0-.131 0-.326.131-.326.261v4.177h5.809a8.666 8.666 0 0 1-.2.718c-.979 2.546-3.721 3.851-6.658 3.394a6.387 6.387 0 0 1-5.222-7.637 5.731 5.731 0 0 1 .457-1.5 6.41 6.41 0 0 1 7.18-3.59 6.169 6.169 0 0 1 2.741 1.436l3.2-3.2c-.065-.065-.2-.131-.261-.261a10.351 10.351 0 0 0-8.809-2.417 10.808 10.808 0 0 0-8.942 8.942 11.153 11.153 0 0 0 .522 5.809 10.986 10.986 0 0 0 11.488 6.923 9.917 9.917 0 0 0 6.331-2.937c2.546-2.676 3.2-5.875 2.741-9.465-.131-.653-.392-.718-.914-.718zm10.835.326H53.9v-3.394c0-.131-.2-.392-.261-.392-.849-.065-1.632-.065-2.546-.065v3.786h-3.854v.718c.065.653.065 1.371.131 2.089.653.065 1.305.065 2.023.065h1.762v3.786h2.807v-3.786h3.786v-2.806z" class="cls-2" data-name="Path 284" transform="translate(-8.14 -11.364)"/>
</svg>
