<svg xmlns="http://www.w3.org/2000/svg" id="Group_64" data-name="Group 64" viewBox="0 0 64.62 64.62">
    <defs>
        <style>
            .cls-1,.cls-2{fill:#fff}.cls-2{fill-rule:evenodd}
        </style>
    </defs>
    <path id="Path_275" d="M32.31 0a32.314 32.314 0 0 1 32.31 32.31A32.308 32.308 0 0 1 9.465 55.155 32.31 32.31 0 0 1 32.31 0zm21.083 11.227A29.705 29.705 0 1 0 62.2 32.31a29.915 29.915 0 0 0-8.812-21.083z" class="cls-1" data-name="Path 275"/>
    <path id="Path_276" d="M32.663 40.888a8.29 8.29 0 1 1 8.29 8.29 8.3 8.3 0 0 1-8.29-8.29zM49.438 24.7h-17.1a7.689 7.689 0 0 0-7.638 7.637v17.1a7.689 7.689 0 0 0 7.637 7.637h17.1a7.647 7.647 0 0 0 7.637-7.637v-17.1a7.6 7.6 0 0 0-7.636-7.637zm-17.1 1.893h17.1a5.711 5.711 0 0 1 5.744 5.744v17.1a5.711 5.711 0 0 1-5.744 5.744h-17.1a5.711 5.711 0 0 1-5.744-5.744v-17.1a5.8 5.8 0 0 1 5.744-5.744zm18.8 2.415a1.7 1.7 0 1 0 1.7 1.7 1.685 1.685 0 0 0-1.7-1.7zm.2 11.88a10.444 10.444 0 1 0-10.45 10.443 10.474 10.474 0 0 0 10.443-10.443z" class="cls-2" data-name="Path 276" transform="translate(-8.578 -8.578)"/>
</svg>
