<svg xmlns="http://www.w3.org/2000/svg" id="Group_66" data-name="Group 66" viewBox="0 0 64.62 64.62">
    <defs>
        <style>
            .cls-1,.cls-2{fill:#fff}.cls-2{fill-rule:evenodd}
        </style>
    </defs>
    <path id="Path_279" d="M32.31 0a32.308 32.308 0 0 1 22.845 55.155 32.308 32.308 0 1 1-45.69-45.69A32.106 32.106 0 0 1 32.31 0zm21.083 11.227A29.705 29.705 0 1 0 62.2 32.31a29.915 29.915 0 0 0-8.812-21.083z" class="cls-1" data-name="Path 279"/>
    <path id="Path_280" d="M27.2 42.082v14.295h6.788V36.926H27.2zm28.981.783c-.457-3.655-2.154-6.005-7.115-6.005-2.937 0-4.9 1.044-5.679 2.611h-.065V36.86H37.9v19.452h5.679v-9.6c0-2.546.522-4.961 3.59-4.961 3.133 0 3.394 2.872 3.394 5.157v9.465h5.809v-10.7a18.947 18.947 0 0 0-.2-2.807zM30.594 27.2a3.394 3.394 0 1 0 3.394 3.394 3.371 3.371 0 0 0-3.394-3.394z" class="cls-2" data-name="Path 280" transform="translate(-9.446 -9.446)"/>
</svg>
