<svg xmlns="http://www.w3.org/2000/svg" id="Group_67" data-name="Group 67" viewBox="0 0 64.62 64.62">
    <defs>
        <style>
            .cls-1,.cls-2{fill:#fff}.cls-2{fill-rule:evenodd}
        </style>
    </defs>
    <path id="Path_281" d="M32.31 0A32.308 32.308 0 1 1 0 32.31 31.992 31.992 0 0 1 9.465 9.465 32.378 32.378 0 0 1 32.31 0zm21.083 11.227A29.705 29.705 0 1 0 62.2 32.31a29.915 29.915 0 0 0-8.812-21.083z" class="cls-1" data-name="Path 281"/>
    <path id="Path_282" d="M57.263 32.433a14.554 14.554 0 0 1-3.851 1.044 6.775 6.775 0 0 0 3-3.721 13.7 13.7 0 0 1-4.308 1.632 6.834 6.834 0 0 0-11.749 4.569 5.564 5.564 0 0 0 .2 1.5 19.266 19.266 0 0 1-13.968-6.984 6.54 6.54 0 0 0-.914 3.329 6.682 6.682 0 0 0 3 5.548 6.183 6.183 0 0 1-3.068-.849v.065a6.113 6.113 0 0 0 .457 2.415 6.777 6.777 0 0 0 4.961 4.119 8.217 8.217 0 0 1-1.762.261 7.23 7.23 0 0 1-1.24-.131 6.769 6.769 0 0 0 6.331 4.634 13.945 13.945 0 0 1-8.42 2.872c-.587 0-1.044-.065-1.632-.065a19.487 19.487 0 0 0 10.378 3 18.812 18.812 0 0 0 18.8-14.947 17.108 17.108 0 0 0 .457-4.047v-.849a14.947 14.947 0 0 0 3.329-3.394z" class="cls-2" data-name="Path 282" transform="translate(-8.439 -10.175)"/>
</svg>
