<svg xmlns="http://www.w3.org/2000/svg" id="Group_65" data-name="Group 65" viewBox="0 0 64.62 64.62">
    <defs>
        <style>
            .cls-1,.cls-2{fill:#fff}.cls-2{fill-rule:evenodd}
        </style>
    </defs>
    <path id="Path_277" d="M32.31 0a32.31 32.31 0 0 1 0 64.62A32.314 32.314 0 0 1 0 32.31 32.314 32.314 0 0 1 32.31 0zm21.083 11.227A29.705 29.705 0 1 0 62.2 32.31a30.309 30.309 0 0 0-8.812-21.083z" class="cls-1" data-name="Path 277"/>
    <path id="Path_278" d="M57.228 39.965a16.2 16.2 0 0 0-32.375-.326 2.447 2.447 0 0 0-.065.718 15.721 15.721 0 0 0 2.35 8.29L24.2 57.263l9.008-2.872a16.78 16.78 0 0 0 7.833 1.958 16.116 16.116 0 0 0 16.187-16.057v-.326zm-8.812 3.655c-.392-.2-2.35-1.175-2.676-1.305-.392-.131-.653-.2-.914.2s-1.044 1.24-1.24 1.5a.609.609 0 0 1-.849.131 9.439 9.439 0 0 1-3.2-1.958 12.825 12.825 0 0 1-2.219-2.676.661.661 0 0 1 .131-.849 5.886 5.886 0 0 0 .587-.653c.065-.065.131-.131.131-.2.131-.131.131-.261.261-.457a.571.571 0 0 0-.065-.653c-.065-.2-.849-2.154-1.24-2.937-.326-.783-.653-.653-.849-.653-.261 0-.522-.065-.783-.065a1.239 1.239 0 0 0-1.044.522 4.188 4.188 0 0 0-1.436 3.264 2.922 2.922 0 0 0 .261 1.305 8.947 8.947 0 0 0 1.371 2.741c.2.261 2.741 4.373 6.788 5.94s4.047 1.044 4.765.979a3.859 3.859 0 0 0 2.676-1.893 2.971 2.971 0 0 0 .2-1.893c0-.131-.261-.261-.653-.392zM41.04 53.869a14.064 14.064 0 0 1-7.506-2.219l-5.222 1.632 1.7-5.026a13.326 13.326 0 0 1-2.611-7.9 8.748 8.748 0 0 1 .065-1.305 13.64 13.64 0 0 1 27.153.261 5.615 5.615 0 0 1 .065 1.044A13.651 13.651 0 0 1 41.04 53.869z" class="cls-2" data-name="Path 278" transform="translate(-8.404 -8.439)"/>
</svg>
